<?xml version="1.0" encoding="utf-8"?>
<!-- Generator: Adobe Illustrator 30.3.0, SVG Export Plug-In . SVG Version: 9.03 Build 0)  -->
<svg version="1.0" id="Layer_1" xmlns="http://www.w3.org/2000/svg" xmlns:xlink="http://www.w3.org/1999/xlink" x="0px" y="0px"
	 viewBox="0 0 155.91 155.91" style="enable-background:new 0 0 155.91 155.91;" xml:space="preserve">
<style type="text/css">
	.st0{fill:#E23C41;}
</style>
<g>
	<path class="st0" d="M128.07,69.37L86.54,27.83c-4.74-4.74-12.43-4.74-17.17,0L27.83,69.37c-4.74,4.74-4.74,12.43,0,17.17
		l41.53,41.53c4.74,4.74,12.43,4.74,17.17,0l41.53-41.53C132.82,81.8,132.82,74.11,128.07,69.37z M77.9,105.16
		c-15.03,0-27.21-12.18-27.21-27.21c0-15.03,12.18-27.21,27.21-27.21c11.99,0,22.17,7.76,25.79,18.54H90.71
		c-2.78-4.1-7.48-6.79-12.8-6.79c-8.54,0-15.46,6.92-15.46,15.46s6.92,15.46,15.46,15.46c6,0,11.19-3.43,13.75-8.42H78.1V74.31
		h26.76c0.16,1.19,0.25,2.41,0.25,3.64C105.11,92.98,92.93,105.16,77.9,105.16z"/>
</g>
<g>
</g>
<g>
</g>
<g>
</g>
<g>
</g>
<g>
</g>
<g>
</g>
</svg>
