<?xml version="1.0" encoding="utf-8"?>
<!-- Generator: Adobe Illustrator 30.3.0, SVG Export Plug-In . SVG Version: 9.03 Build 0)  -->
<svg version="1.0" id="Layer_1" xmlns="http://www.w3.org/2000/svg" xmlns:xlink="http://www.w3.org/1999/xlink" x="0px" y="0px"
	 viewBox="0 0 425.58 155.91" style="enable-background:new 0 0 425.58 155.91;" xml:space="preserve">
<style type="text/css">
	.st0{fill:#E13C41;}
	.st1{fill:#FFFFFF;}
</style>
<path class="st0" d="M128.07,69.37L86.54,27.83c-4.74-4.74-12.43-4.74-17.17,0L27.83,69.37c-4.74,4.74-4.74,12.43,0,17.17
	l41.53,41.53c4.74,4.74,12.43,4.74,17.17,0l41.53-41.53C132.81,81.8,132.81,74.11,128.07,69.37z"/>
<g>
	<path class="st0" d="M217.22,90.09V57.73h7.26v10.02c1.92-2.06,4.37-2.76,6.91-2.76c6.3,0,12.07,4.72,12.07,12.82
		c0,7.48-4.77,13.12-12.25,13.12c-2.93,0-5.86-1.36-6.95-3.41h-0.09v2.58H217.22z M236.2,77.93c0-3.24-2.49-6.17-5.99-6.17
		c-3.37,0-5.99,2.76-5.99,6.12c0,3.59,2.54,6.25,5.9,6.25C233.53,84.14,236.2,81.43,236.2,77.93z"/>
	<path class="st0" d="M259.47,90.84c-7.39,0-13.08-5.47-13.08-12.9c0-7.52,5.82-12.9,13.08-12.9c7.3,0,13.08,5.47,13.08,12.82
		C272.54,85.46,266.77,90.84,259.47,90.84z M265.28,77.93c0-3.24-2.45-6.12-5.86-6.12c-3.19,0-5.77,2.8-5.77,6.12
		s2.54,6.12,5.82,6.12C262.88,84.06,265.28,81.17,265.28,77.93z"/>
	<path class="st0" d="M277.44,90.09V71.87h-3.59v-6.05h3.59v-8.09h7.26v8.09h3.5v6.05h-3.5v18.23H277.44z"/>
	<path class="st0" d="M306.57,90.09V76.75c0-3.15-1.22-4.94-3.89-4.94c-2.76,0-4.07,1.62-4.07,4.64v13.65h-7.26V57.73h7.26v10.41
		c1.05-1.97,3.41-3.15,6.3-3.15c5.55,0,8.92,3.5,8.92,9.84v15.26H306.57z"/>
	<path class="st0" d="M324.85,80.16c0.39,2.76,2.71,4.59,5.69,4.59c1.97,0,3.24-0.74,4.42-2.27h7.44c-2.32,5.29-6.74,8.4-11.85,8.4
		c-7,0-12.86-5.64-12.86-12.86c0-7,5.6-13.03,12.73-13.03c7.26,0,12.82,5.73,12.82,13.25c0,0.7-0.04,1.27-0.17,1.92H324.85z
		 M335.96,75.27c-0.57-2.49-2.76-4.16-5.55-4.16c-2.62,0-4.9,1.57-5.47,4.16H335.96z"/>
	<path class="st0" d="M347.2,90.09V65.82h6.82v3.41h0.09c1.27-2.58,3.28-3.41,6.08-3.41v7.3c-4.33,0.04-5.73,1.66-5.73,4.42v12.55
		H347.2z"/>
	<path class="st0" d="M394.04,90.09V77.02c0-3.81-1.22-5.21-3.72-5.21c-2.76,0-4.02,1.66-4.02,4.86v13.43h-7.26V76.71
		c0-3.15-1.14-4.9-3.63-4.9c-2.84,0-4.11,1.84-4.11,5.21v13.08h-7.26V65.82h6.78v2.58h0.09c1.27-2.27,3.59-3.41,6.69-3.41
		c3.15,0,5.47,1.57,7,4.33c1.75-2.76,4.37-4.33,7.7-4.33c5.42,0,9.01,3.32,9.01,10.1v15H394.04z"/>
	<path class="st0" d="M204.45,68.4h-0.09c-1.4-2.23-4.16-3.41-7.13-3.41c-6.95,0-12.16,5.77-12.16,12.95
		c0,7.35,4.99,12.99,12.16,12.99c3.19,0,6.08-1.31,7.13-3.46h0.09v2.62h7.26V65.82h-7.26V68.4z M198.37,84.14
		c-3.37,0-6.04-2.76-6.04-6.12c0-3.5,2.62-6.25,5.95-6.25c3.41,0,6.17,2.76,6.17,6.17C204.45,81.43,201.78,84.14,198.37,84.14z"/>
	<path class="st0" d="M181.68,71.87H165v6.05h8.68c-1.51,3.29-4.82,5.57-8.68,5.57c-5.28,0-9.56-4.28-9.56-9.56s4.28-9.56,9.56-9.56
		c3.29,0,6.2,1.67,7.91,4.2h8.02c-2.24-6.66-8.53-11.46-15.94-11.46c-9.29,0-16.81,7.53-16.81,16.81s7.53,16.81,16.81,16.81
		c9.29,0,16.81-7.53,16.81-16.81C181.81,73.23,181.76,72.54,181.68,71.87z"/>
</g>
<path class="st1" d="M77.86,105.16c-15.03,0-27.21-12.18-27.21-27.21c0-15.03,12.18-27.21,27.21-27.21
	c11.99,0,22.17,7.76,25.79,18.54H90.66c-2.78-4.1-7.48-6.79-12.8-6.79c-8.54,0-15.46,6.92-15.46,15.46s6.92,15.46,15.46,15.46
	c6,0,11.19-3.43,13.75-8.42H78.06V74.31h26.76c0.16,1.19,0.25,2.41,0.25,3.64C105.07,92.98,92.89,105.16,77.86,105.16z"/>
<g>
</g>
<g>
</g>
<g>
</g>
<g>
</g>
<g>
</g>
<g>
</g>
</svg>
